<mxfile host="app.diagrams.net" modified="2024-11-30T01:53:45.686Z" agent="Mozilla/5.0 (Windows NT 10.0; Win64; x64) AppleWebKit/537.36 (KHTML, like Gecko) Chrome/128.0.0.0 Safari/537.36 OPR/114.0.0.0" etag="FXllzDD4Mcz0Phsdm3Bw" version="24.6.4" type="device">
  <diagram name="Page-1" id="J3nhBphksIGurhZdP4-g">
    <mxGraphModel dx="1561" dy="733" grid="1" gridSize="10" guides="1" tooltips="1" connect="1" arrows="1" fold="1" page="1" pageScale="1" pageWidth="1654" pageHeight="1169" math="0" shadow="0">
      <root>
        <mxCell id="0" />
        <mxCell id="1" parent="0" />
        <mxCell id="G1DM6NJddwoMTrpBOd8M-4" value="" style="group" vertex="1" connectable="0" parent="1">
          <mxGeometry x="50" y="260" width="120" height="60" as="geometry" />
        </mxCell>
        <mxCell id="G1DM6NJddwoMTrpBOd8M-2" value="" style="rounded=0;whiteSpace=wrap;html=1;" vertex="1" parent="G1DM6NJddwoMTrpBOd8M-4">
          <mxGeometry width="120" height="60" as="geometry" />
        </mxCell>
        <mxCell id="G1DM6NJddwoMTrpBOd8M-3" value="&lt;font style=&quot;font-size: 20px;&quot;&gt;Main&lt;/font&gt;" style="text;html=1;align=center;verticalAlign=middle;whiteSpace=wrap;rounded=0;" vertex="1" parent="G1DM6NJddwoMTrpBOd8M-4">
          <mxGeometry width="120" height="60" as="geometry" />
        </mxCell>
        <mxCell id="G1DM6NJddwoMTrpBOd8M-5" value="" style="group" vertex="1" connectable="0" parent="1">
          <mxGeometry x="270" y="260" width="120" height="60" as="geometry" />
        </mxCell>
        <mxCell id="G1DM6NJddwoMTrpBOd8M-6" value="" style="rounded=0;whiteSpace=wrap;html=1;" vertex="1" parent="G1DM6NJddwoMTrpBOd8M-5">
          <mxGeometry width="120" height="60" as="geometry" />
        </mxCell>
        <mxCell id="G1DM6NJddwoMTrpBOd8M-7" value="&lt;font style=&quot;font-size: 20px;&quot;&gt;Pitch&lt;/font&gt;" style="text;html=1;align=center;verticalAlign=middle;whiteSpace=wrap;rounded=0;" vertex="1" parent="G1DM6NJddwoMTrpBOd8M-5">
          <mxGeometry width="120" height="60" as="geometry" />
        </mxCell>
        <mxCell id="G1DM6NJddwoMTrpBOd8M-8" value="" style="endArrow=classic;html=1;rounded=0;exitX=0;exitY=0.5;exitDx=0;exitDy=0;entryX=1;entryY=0.5;entryDx=0;entryDy=0;" edge="1" parent="1" source="G1DM6NJddwoMTrpBOd8M-7" target="G1DM6NJddwoMTrpBOd8M-3">
          <mxGeometry width="50" height="50" relative="1" as="geometry">
            <mxPoint x="490" y="440" as="sourcePoint" />
            <mxPoint x="540" y="390" as="targetPoint" />
          </mxGeometry>
        </mxCell>
        <mxCell id="G1DM6NJddwoMTrpBOd8M-9" value="" style="group" vertex="1" connectable="0" parent="1">
          <mxGeometry x="270" y="405" width="120" height="60" as="geometry" />
        </mxCell>
        <mxCell id="G1DM6NJddwoMTrpBOd8M-10" value="" style="rounded=0;whiteSpace=wrap;html=1;" vertex="1" parent="G1DM6NJddwoMTrpBOd8M-9">
          <mxGeometry width="120" height="60" as="geometry" />
        </mxCell>
        <mxCell id="G1DM6NJddwoMTrpBOd8M-11" value="&lt;font style=&quot;font-size: 20px;&quot;&gt;Players&lt;/font&gt;" style="text;html=1;align=center;verticalAlign=middle;whiteSpace=wrap;rounded=0;" vertex="1" parent="G1DM6NJddwoMTrpBOd8M-9">
          <mxGeometry width="120" height="60" as="geometry" />
        </mxCell>
        <mxCell id="G1DM6NJddwoMTrpBOd8M-12" value="" style="endArrow=classic;html=1;rounded=0;exitX=0;exitY=0.5;exitDx=0;exitDy=0;entryX=1;entryY=0.5;entryDx=0;entryDy=0;" edge="1" parent="1" source="G1DM6NJddwoMTrpBOd8M-11" target="G1DM6NJddwoMTrpBOd8M-3">
          <mxGeometry width="50" height="50" relative="1" as="geometry">
            <mxPoint x="280" y="300" as="sourcePoint" />
            <mxPoint x="180" y="300" as="targetPoint" />
          </mxGeometry>
        </mxCell>
        <mxCell id="G1DM6NJddwoMTrpBOd8M-14" value="" style="group" vertex="1" connectable="0" parent="1">
          <mxGeometry x="270" y="560" width="120" height="60" as="geometry" />
        </mxCell>
        <mxCell id="G1DM6NJddwoMTrpBOd8M-15" value="" style="rounded=0;whiteSpace=wrap;html=1;" vertex="1" parent="G1DM6NJddwoMTrpBOd8M-14">
          <mxGeometry width="120" height="60" as="geometry" />
        </mxCell>
        <mxCell id="G1DM6NJddwoMTrpBOd8M-16" value="&lt;font style=&quot;font-size: 20px;&quot;&gt;Ball&lt;/font&gt;" style="text;html=1;align=center;verticalAlign=middle;whiteSpace=wrap;rounded=0;" vertex="1" parent="G1DM6NJddwoMTrpBOd8M-14">
          <mxGeometry width="120" height="60" as="geometry" />
        </mxCell>
        <mxCell id="G1DM6NJddwoMTrpBOd8M-17" value="" style="endArrow=classic;html=1;rounded=0;exitX=0;exitY=0.5;exitDx=0;exitDy=0;entryX=1;entryY=0.5;entryDx=0;entryDy=0;" edge="1" parent="1" source="G1DM6NJddwoMTrpBOd8M-16" target="G1DM6NJddwoMTrpBOd8M-3">
          <mxGeometry width="50" height="50" relative="1" as="geometry">
            <mxPoint x="280" y="430" as="sourcePoint" />
            <mxPoint x="180" y="300" as="targetPoint" />
          </mxGeometry>
        </mxCell>
        <mxCell id="G1DM6NJddwoMTrpBOd8M-19" value="" style="group" vertex="1" connectable="0" parent="1">
          <mxGeometry x="430" y="50" width="120" height="60" as="geometry" />
        </mxCell>
        <mxCell id="G1DM6NJddwoMTrpBOd8M-20" value="" style="rounded=0;whiteSpace=wrap;html=1;" vertex="1" parent="G1DM6NJddwoMTrpBOd8M-19">
          <mxGeometry width="120" height="60" as="geometry" />
        </mxCell>
        <mxCell id="G1DM6NJddwoMTrpBOd8M-21" value="&lt;font style=&quot;font-size: 20px;&quot;&gt;Field&lt;/font&gt;" style="text;html=1;align=center;verticalAlign=middle;whiteSpace=wrap;rounded=0;" vertex="1" parent="G1DM6NJddwoMTrpBOd8M-19">
          <mxGeometry width="120" height="60" as="geometry" />
        </mxCell>
        <mxCell id="G1DM6NJddwoMTrpBOd8M-22" value="" style="group" vertex="1" connectable="0" parent="1">
          <mxGeometry x="430" y="160" width="120" height="60" as="geometry" />
        </mxCell>
        <mxCell id="G1DM6NJddwoMTrpBOd8M-23" value="" style="rounded=0;whiteSpace=wrap;html=1;" vertex="1" parent="G1DM6NJddwoMTrpBOd8M-22">
          <mxGeometry width="120" height="60" as="geometry" />
        </mxCell>
        <mxCell id="G1DM6NJddwoMTrpBOd8M-24" value="&lt;font style=&quot;font-size: 20px;&quot;&gt;Goals&lt;/font&gt;" style="text;html=1;align=center;verticalAlign=middle;whiteSpace=wrap;rounded=0;" vertex="1" parent="G1DM6NJddwoMTrpBOd8M-22">
          <mxGeometry width="120" height="60" as="geometry" />
        </mxCell>
        <mxCell id="G1DM6NJddwoMTrpBOd8M-25" value="" style="endArrow=classic;html=1;rounded=0;exitX=0;exitY=0.5;exitDx=0;exitDy=0;entryX=1;entryY=0.5;entryDx=0;entryDy=0;" edge="1" parent="1" source="G1DM6NJddwoMTrpBOd8M-21" target="G1DM6NJddwoMTrpBOd8M-7">
          <mxGeometry width="50" height="50" relative="1" as="geometry">
            <mxPoint x="280" y="300" as="sourcePoint" />
            <mxPoint x="180" y="300" as="targetPoint" />
          </mxGeometry>
        </mxCell>
        <mxCell id="G1DM6NJddwoMTrpBOd8M-26" value="" style="endArrow=classic;html=1;rounded=0;exitX=0;exitY=0.5;exitDx=0;exitDy=0;entryX=1;entryY=0.5;entryDx=0;entryDy=0;" edge="1" parent="1" source="G1DM6NJddwoMTrpBOd8M-24" target="G1DM6NJddwoMTrpBOd8M-7">
          <mxGeometry width="50" height="50" relative="1" as="geometry">
            <mxPoint x="290" y="310" as="sourcePoint" />
            <mxPoint x="190" y="310" as="targetPoint" />
          </mxGeometry>
        </mxCell>
        <mxCell id="G1DM6NJddwoMTrpBOd8M-27" value="" style="group" vertex="1" connectable="0" parent="1">
          <mxGeometry x="430" y="340" width="120" height="60" as="geometry" />
        </mxCell>
        <mxCell id="G1DM6NJddwoMTrpBOd8M-28" value="" style="rounded=0;whiteSpace=wrap;html=1;" vertex="1" parent="G1DM6NJddwoMTrpBOd8M-27">
          <mxGeometry width="120" height="60" as="geometry" />
        </mxCell>
        <mxCell id="G1DM6NJddwoMTrpBOd8M-29" value="&lt;font style=&quot;font-size: 20px;&quot;&gt;Player1&lt;/font&gt;" style="text;html=1;align=center;verticalAlign=middle;whiteSpace=wrap;rounded=0;" vertex="1" parent="G1DM6NJddwoMTrpBOd8M-27">
          <mxGeometry width="120" height="60" as="geometry" />
        </mxCell>
        <mxCell id="G1DM6NJddwoMTrpBOd8M-30" value="" style="group" vertex="1" connectable="0" parent="1">
          <mxGeometry x="430" y="470" width="120" height="60" as="geometry" />
        </mxCell>
        <mxCell id="G1DM6NJddwoMTrpBOd8M-31" value="" style="rounded=0;whiteSpace=wrap;html=1;" vertex="1" parent="G1DM6NJddwoMTrpBOd8M-30">
          <mxGeometry width="120" height="60" as="geometry" />
        </mxCell>
        <mxCell id="G1DM6NJddwoMTrpBOd8M-32" value="&lt;font style=&quot;font-size: 20px;&quot;&gt;Player22&lt;/font&gt;" style="text;html=1;align=center;verticalAlign=middle;whiteSpace=wrap;rounded=0;" vertex="1" parent="G1DM6NJddwoMTrpBOd8M-30">
          <mxGeometry width="120" height="60" as="geometry" />
        </mxCell>
        <mxCell id="G1DM6NJddwoMTrpBOd8M-33" value="" style="endArrow=none;dashed=1;html=1;dashPattern=1 3;strokeWidth=2;rounded=0;" edge="1" parent="1">
          <mxGeometry width="50" height="50" relative="1" as="geometry">
            <mxPoint x="490" y="460" as="sourcePoint" />
            <mxPoint x="490" y="410" as="targetPoint" />
          </mxGeometry>
        </mxCell>
        <mxCell id="G1DM6NJddwoMTrpBOd8M-34" value="&lt;font style=&quot;font-size: 20px;&quot;&gt;x22&lt;/font&gt;" style="text;html=1;align=center;verticalAlign=middle;whiteSpace=wrap;rounded=0;" vertex="1" parent="1">
          <mxGeometry x="496" y="420" width="40" height="30" as="geometry" />
        </mxCell>
        <mxCell id="G1DM6NJddwoMTrpBOd8M-35" value="" style="group" vertex="1" connectable="0" parent="1">
          <mxGeometry x="430" y="260" width="120" height="60" as="geometry" />
        </mxCell>
        <mxCell id="G1DM6NJddwoMTrpBOd8M-36" value="" style="rounded=0;whiteSpace=wrap;html=1;" vertex="1" parent="G1DM6NJddwoMTrpBOd8M-35">
          <mxGeometry width="120" height="60" as="geometry" />
        </mxCell>
        <mxCell id="G1DM6NJddwoMTrpBOd8M-37" value="&lt;font style=&quot;font-size: 20px;&quot;&gt;Flags&lt;/font&gt;" style="text;html=1;align=center;verticalAlign=middle;whiteSpace=wrap;rounded=0;" vertex="1" parent="G1DM6NJddwoMTrpBOd8M-35">
          <mxGeometry width="120" height="60" as="geometry" />
        </mxCell>
        <mxCell id="G1DM6NJddwoMTrpBOd8M-38" value="" style="endArrow=classic;html=1;rounded=0;exitX=0;exitY=0.5;exitDx=0;exitDy=0;entryX=1;entryY=0.5;entryDx=0;entryDy=0;" edge="1" parent="1" source="G1DM6NJddwoMTrpBOd8M-37" target="G1DM6NJddwoMTrpBOd8M-7">
          <mxGeometry width="50" height="50" relative="1" as="geometry">
            <mxPoint x="280" y="300" as="sourcePoint" />
            <mxPoint x="180" y="300" as="targetPoint" />
          </mxGeometry>
        </mxCell>
      </root>
    </mxGraphModel>
  </diagram>
</mxfile>
